<svg xmlns="http://www.w3.org/2000/svg" shape-rendering="geometricPrecision" text-rendering="geometricPrecision" image-rendering="optimizeQuality" fill-rule="evenodd" clip-rule="evenodd" viewBox="0 0 96 96" width="96" height="96">
    <path fill="white" d="M19.688 0h56.625c10.861 0.029 19.658 8.826 19.688 19.687V76.313c-0.029 10.861 -8.826 19.658 -19.687 19.687L19.688 96C8.826 95.971 0.029 87.174 0 76.313L0 19.688C0.029 8.826 8.826 0.029 19.687 0H19.688z"/>
  
    <path fill="black" fill-rule="nonzero" d="M51.815 48c0 9.341 -7.52 16.913 -16.798 16.913 -9.277 0 -16.797 -7.57 -16.797 -16.913 0 -9.343 7.52 -16.912 16.797 -16.912 9.277 0 16.798 7.572 16.798 16.912zm18.428 0c0 8.793 -3.761 15.921 -8.399 15.921 -4.638 0 -8.399 -7.13 -8.399 -15.921 0 -8.791 3.761 -15.92 8.399 -15.92 4.638 0 8.399 7.13 8.399 15.92zm7.537 0c0 7.878 -1.323 14.264 -2.954 14.264 -1.631 0 -2.954 -6.388 -2.954 -14.264 0 -7.876 1.323 -14.264 2.954 -14.264 1.632 0 2.954 6.387 2.954 14.264z"/>
</svg>
